<?xml version="1.0" encoding="utf-8"?>
<!-- Generator: Adobe Illustrator 18.0.0, SVG Export Plug-In . SVG Version: 6.00 Build 0)  -->
<!DOCTYPE svg PUBLIC "-//W3C//DTD SVG 1.1//EN" "http://www.w3.org/Graphics/SVG/1.1/DTD/svg11.dtd">
<svg version="1.1" id="Livello_1" xmlns="http://www.w3.org/2000/svg" xmlns:xlink="http://www.w3.org/1999/xlink" x="0px" y="0px"
	 viewBox="0 0 200 100" enable-background="new 0 0 200 100" xml:space="preserve">
<g>
	<path fill="none" d="M143.7,46.6c-0.6-0.3-1.5-0.5-2.8-0.5c-1,0-1.8,0.1-2.4,0.2c-0.6,0.2-1.1,0.4-1.5,0.8
		c-0.4,0.4-0.6,0.9-0.7,1.5c-0.1,0.6-0.2,1.3-0.2,2.2v0.5l5.2-0.9c0.7-0.1,1.3-0.3,1.7-0.4c0.4-0.1,0.8-0.3,1-0.5s0.4-0.4,0.4-0.6
		c0.1-0.2,0.1-0.5,0.1-0.8C144.5,47.4,144.3,46.9,143.7,46.6z"/>
	<path fill="#FFFFFF" d="M75.4,36.2h-2.6c-3.9,0-5.8,1.8-5.8,5.5v18.1c0,0.3,0.2,0.5,0.5,0.5h2.7c0.2,0,0.3-0.2,0.3-0.5v-13
		c0.1-0.3,0.3-0.5,0.6-0.5h4.3c0.3,0,0.5-0.1,0.5-0.3v-2c0-0.3-0.2-0.5-0.5-0.5h-4.8v-2c0-0.9,0.2-1.5,0.6-1.7
		c0.3-0.3,1.1-0.4,2.3-0.4h1.5H76c0.1,0,0.2-0.1,0.2-0.2l0.2-1.8C76.4,36.7,76.1,36.3,75.4,36.2z"/>
	<path fill="#FFFFFF" d="M92.5,43.3h-2.8c-0.3,0-0.4,0.1-0.4,0.4v12.7c0,0.3-0.2,0.4-0.5,0.5c-0.3,0.1-0.8,0.2-1.3,0.2
		c-0.6,0-1.5,0.1-2.6,0.1c-1.5,0-2.5-0.2-3-0.7c-0.5-0.4-0.8-1.3-0.8-2.6V43.7c0-0.3-0.1-0.4-0.4-0.4h-2.9c-0.3,0-0.4,0.1-0.4,0.4
		v10.8c0,2.1,0.6,3.6,1.7,4.5s3,1.4,5.6,1.4c1.6,0,3,0,4-0.1c1-0.1,2.1-0.2,3-0.5c0.8-0.1,1.3-0.6,1.3-1.5V43.7
		C93,43.4,92.8,43.3,92.5,43.3z"/>
	<path fill="#FFFFFF" d="M103.7,43.6c-0.4-0.1-0.9-0.1-1.4-0.1c-0.5,0-1-0.1-1.5-0.1c-2.1,0-3.7,0.5-4.8,1.4
		c-1.1,0.9-1.6,2.5-1.6,4.6v10.4c0,0.3,0.1,0.4,0.4,0.4h2.8c0.3,0,0.4-0.1,0.4-0.4V48.9c0-0.8,0.2-1.4,0.7-1.8
		c0.5-0.3,1.1-0.5,2-0.5c0.7,0,1.4,0,2.1,0s1.2,0,1.5,0c0.3,0,0.4-0.1,0.4-0.4l0.1-1.6C104.7,44.1,104.3,43.7,103.7,43.6z"/>
	<path fill="#FFFFFF" d="M114.7,57.1c-0.3,0-0.8,0-1.3,0.1s-1,0.1-1.4,0.1c-1.2,0-2-0.2-2.3-0.5c-0.3-0.4-0.5-1-0.5-1.8v-8.1
		c0-0.3,0.1-0.5,0.4-0.5h4.4c0.3,0,0.4-0.1,0.4-0.4v-2.1c0-0.3-0.1-0.4-0.4-0.4h-4.8v-4.5c0-0.3-0.1-0.4-0.4-0.4h-1.7
		c-0.5,0-0.9,0.1-1.2,0.4c-0.3,0.3-0.4,0.7-0.4,1.3v14.6c0,1.9,0.5,3.3,1.4,4.2c0.9,0.9,2.4,1.3,4.6,1.3c0.5,0,1,0,1.4,0
		c0.4,0,0.8,0,1.2-0.1c0.4-0.1,0.6-0.2,0.8-0.4c0.1-0.1,0.2-0.4,0.2-0.8v-1.6C115,57.2,114.9,57.1,114.7,57.1z"/>
	<path fill="#FFFFFF" d="M124.4,43.3c-0.9,0-1.7,0-2.5,0.1c-0.8,0.1-1.6,0.2-2.3,0.3V37c0-0.3-0.1-0.4-0.4-0.4h-1.7
		c-1,0-1.6,0.6-1.6,1.7v21.5c0,0.3,0.1,0.4,0.4,0.4h2.9c0.3,0,0.4-0.1,0.4-0.4V47.4c0-0.3,0.1-0.5,0.4-0.6c0.9-0.2,2.2-0.4,4-0.4
		c1.5,0,2.4,0.2,2.9,0.7c0.5,0.5,0.8,1.3,0.8,2.6v10.1c0,0.3,0.1,0.4,0.4,0.4h2.8c0.3,0,0.4-0.1,0.4-0.4V49.2
		C131.3,45.3,129,43.3,124.4,43.3z"/>
	<path fill="#FFFFFF" d="M146.8,44.7c-0.6-0.5-1.4-0.8-2.4-1.1c-1-0.3-2.3-0.4-3.8-0.4c-1.3,0-2.5,0.1-3.5,0.4
		c-1,0.3-1.9,0.7-2.6,1.4s-1.2,1.5-1.6,2.6c-0.4,1.1-0.6,2.4-0.6,4c0,1.3,0.1,2.6,0.4,3.6s0.7,2,1.3,2.7c0.6,0.7,1.5,1.3,2.6,1.7
		c1.1,0.4,2.5,0.6,4.1,0.6c1.1,0,2.1,0,3,0s1.6-0.1,2.2-0.1c0.4-0.1,0.7-0.2,1-0.4s0.3-0.5,0.3-1l-0.1-1.5c0-0.3-0.1-0.4-0.4-0.4
		c-0.1,0-0.4,0-0.8,0c-0.4,0-0.8,0.1-1.4,0.1c-0.5,0-1.1,0.1-1.7,0.1c-0.6,0-1.1,0-1.7,0c-1.6,0-2.8-0.2-3.5-0.6
		c-0.8-0.4-1.3-1.2-1.5-2.3l6.5-1.2c1-0.2,1.8-0.4,2.5-0.6s1.3-0.6,1.7-0.9c0.5-0.4,0.8-0.9,1-1.4c0.2-0.6,0.3-1.2,0.3-2
		c0-0.6-0.1-1.2-0.3-1.8S147.3,45.2,146.8,44.7z M144.5,49c-0.1,0.2-0.2,0.4-0.4,0.6s-0.5,0.3-1,0.5c-0.4,0.1-1,0.3-1.7,0.4
		l-5.2,0.9v-0.5c0-0.9,0.1-1.6,0.2-2.2c0.1-0.6,0.4-1.1,0.7-1.5c0.4-0.4,0.8-0.6,1.5-0.8c0.6-0.2,1.4-0.2,2.4-0.2
		c1.3,0,2.3,0.2,2.8,0.5c0.6,0.3,0.8,0.8,0.8,1.5C144.5,48.5,144.5,48.7,144.5,49z"/>
	<path fill="#FFFFFF" d="M159.2,50.6l-4.6-1.2c-1.2-0.3-1.8-0.8-1.8-1.6c0-0.7,0.3-1.1,0.9-1.3s1.6-0.4,2.9-0.4c1,0,1.8,0,2.4,0.1
		c0.6,0.1,1.2,0.1,1.6,0.2c0.4,0.1,0.7,0.1,1,0.1c0.3,0,0.5,0.1,0.6,0.1c0.2,0,0.3-0.1,0.3-0.3v-1.5c0.1-0.4,0-0.7-0.3-0.9
		s-0.5-0.3-0.9-0.4c-0.5-0.1-1.1-0.2-1.8-0.3c-0.7-0.1-1.8-0.1-3.1-0.1c-2.6,0-4.5,0.5-5.6,1.4c-1.1,1-1.6,2.1-1.6,3.6
		c0,1.1,0.3,2.1,1,2.7s1.9,1.2,3.6,1.7l4.5,1.2c0.5,0.2,0.9,0.3,1.3,0.6c0.4,0.2,0.6,0.6,0.6,1c0,0.6-0.3,1-0.9,1.4s-1.6,0.5-3,0.5
		c-1.9,0-3.4-0.1-4.3-0.3c-0.9-0.2-1.6-0.3-1.9-0.3c-0.2,0-0.3,0.1-0.3,0.4l-0.1,1.6c0,0.8,0.4,1.2,1.2,1.3c0.6,0.1,1.3,0.2,2.3,0.3
		s2.1,0.2,3.5,0.2c2.5,0,4.4-0.5,5.5-1.4c1.1-0.9,1.7-2.2,1.7-3.9c0-1.1-0.4-2.1-1.1-2.8C161.8,51.6,160.7,51,159.2,50.6z"/>
	<path fill="#FFFFFF" d="M173.7,57.1c-0.3,0-0.8,0-1.3,0.1s-1,0.1-1.4,0.1c-1.2,0-2-0.2-2.3-0.5c-0.3-0.4-0.5-1-0.5-1.8v-8.1
		c0-0.3,0.1-0.5,0.4-0.5h4.4c0.3,0,0.4-0.1,0.4-0.4v-2.1c0-0.3-0.1-0.4-0.4-0.4h-4.8v-4.5c0-0.3-0.1-0.4-0.4-0.4h-1.7
		c-0.5,0-0.9,0.1-1.2,0.4c-0.3,0.3-0.4,0.7-0.4,1.3v14.6c0,1.9,0.5,3.3,1.4,4.2s2.4,1.3,4.6,1.3c0.5,0,1,0,1.4,0
		c0.4,0,0.8,0,1.2-0.1c0.4-0.1,0.6-0.2,0.8-0.4c0.1-0.1,0.2-0.4,0.2-0.8v-1.6C174,57.2,173.9,57.1,173.7,57.1z"/>
	<path fill="#003A7F" d="M28.2,32.4c-0.8-0.8-2-0.8-2.8,0c-0.8,0.8-0.8,2,0,2.8l14.8,14.8L25.3,64.9c-0.8,0.8-0.8,2,0,2.8
		c0.8,0.8,2,0.8,2.8,0l16.2-16.2c0.4-0.4,0.6-0.9,0.6-1.4c0-0.5-0.2-1-0.6-1.4L28.2,32.4z"/>
	<path fill="#FFFFFF" d="M47.9,40c-0.6-0.6-1.5-0.6-2.1,0c-0.6,0.6-0.6,1.5,0,2.1l7.5,7.5l-6.8,6.8c-0.6,0.6-0.6,1.5,0,2.1
		c0.6,0.6,1.5,0.6,2.1,0l7.8-7.8c0,0,0,0,0,0c0.6-0.6,0.6-1.5,0-2.1L47.9,40z"/>
</g>
</svg>
