<?xml version="1.0" encoding="utf-8"?>
<!-- Generator: Adobe Illustrator 18.0.0, SVG Export Plug-In . SVG Version: 6.00 Build 0)  -->
<!DOCTYPE svg PUBLIC "-//W3C//DTD SVG 1.1//EN" "http://www.w3.org/Graphics/SVG/1.1/DTD/svg11.dtd">
<svg version="1.1" id="Livello_1" xmlns="http://www.w3.org/2000/svg" xmlns:xlink="http://www.w3.org/1999/xlink" x="0px" y="0px"
	 viewBox="0 0 500 500" enable-background="new 0 0 500 500" xml:space="preserve">
<path fill="#003A7F" d="M264.5,262.5L264.5,262.5c-7.1,7.1-18.6,7.1-25.7,0L91,114.7c-7.1-7.1-7.1-18.6,0-25.7l0,0
	c7.1-7.1,18.6-7.1,25.7,0l147.8,147.8C271.6,243.9,271.6,255.4,264.5,262.5z"/>
<path fill="#003A7F" d="M91,411L91,411c-7.1-7.1-7.1-18.6,0-25.7l147.8-147.8c7.1-7.1,18.6-7.1,25.7,0l0,0c7.1,7.1,7.1,18.6,0,25.7
	L116.7,411C109.6,418.1,98.1,418.1,91,411z"/>
<path fill="#B7B7B7" d="M374.7,255.1L374.7,255.1c-5.2,5.2-13.7,5.2-18.9,0l-77.9-77.9c-5.2-5.2-5.2-13.7,0-18.9l0,0
	c5.2-5.2,13.7-5.2,18.9,0l77.9,77.9C380,241.4,380,249.9,374.7,255.1z"/>
<path fill="#B7B7B7" d="M284.4,326.4L284.4,326.4c-5.2-5.2-5.2-13.7,0-18.9l71.3-71.3c5.2-5.2,13.7-5.2,18.9,0l0,0
	c5.2,5.2,5.2,13.7,0,18.9l-71.3,71.3C298.1,331.6,289.7,331.6,284.4,326.4z"/>
</svg>
